<svg width="40" height="44" viewBox="0 0 40 44" fill="none" xmlns="http://www.w3.org/2000/svg">
<path d="M37.6951 24.3085C37.0855 24.3085 36.5009 24.0653 36.0698 23.6326C35.6388 23.1998 35.3966 22.6129 35.3966 22.0009V12.1551C35.3966 11.5431 35.6388 10.9562 36.0698 10.5234C36.5009 10.0906 37.0855 9.84751 37.6951 9.84751C38.3047 9.84751 38.8893 10.0906 39.3204 10.5234C39.7514 10.9562 39.9936 11.5431 39.9936 12.1551V22.0009C39.9936 22.6129 39.7514 23.1998 39.3204 23.6326C38.8893 24.0653 38.3047 24.3085 37.6951 24.3085Z" fill="url(#paint0_linear)"/>
<path d="M37.6951 14.4627C37.3063 14.4626 36.9239 14.3629 36.5842 14.1731L18.8859 4.32736C18.6218 4.18048 18.389 3.98282 18.201 3.74566C18.013 3.50849 17.8733 3.23647 17.79 2.94512C17.7067 2.65377 17.6814 2.3488 17.7155 2.04762C17.7496 1.74644 17.8424 1.45495 17.9887 1.18979C18.135 0.924632 18.3319 0.690999 18.5681 0.50223C18.8043 0.313461 19.0753 0.173254 19.3655 0.0896131C19.6557 0.00597227 19.9594 -0.0194639 20.2594 0.0147569C20.5594 0.0489777 20.8497 0.142185 21.1139 0.289058L38.8122 10.1348C39.259 10.3824 39.611 10.7722 39.8127 11.2428C40.0145 11.7134 40.0545 12.238 39.9265 12.734C39.7985 13.2299 39.5097 13.669 39.1057 13.982C38.7017 14.295 38.2054 14.4641 37.6951 14.4627Z" fill="url(#paint1_linear)"/>
<path d="M2.30041 14.4627C1.79083 14.4631 1.29556 14.2935 0.892467 13.9805C0.489373 13.6675 0.201306 13.2289 0.0735496 12.7336C-0.0542066 12.2384 -0.0144079 11.7145 0.18669 11.2445C0.387787 10.7744 0.73878 10.3847 1.18449 10.1367L18.8828 0.290975C19.4162 -0.00564712 20.0451 -0.0773895 20.6312 0.0915307C21.2173 0.260451 21.7125 0.656197 22.008 1.19171C22.3034 1.72722 22.3749 2.35863 22.2066 2.94704C22.0384 3.53545 21.6442 4.03265 21.1108 4.32927L3.41249 14.175C3.07221 14.3644 2.68944 14.4634 2.30041 14.4627Z" fill="url(#paint2_linear)"/>
<path d="M19.9968 24.3085C19.608 24.3084 19.2256 24.2087 18.8858 24.0189L1.18753 14.1731C0.923415 14.0263 0.690705 13.8286 0.502682 13.5914C0.314659 13.3543 0.175006 13.0822 0.0916954 12.7909C-0.0765574 12.2025 -0.00509845 11.5711 0.290352 11.0356C0.585803 10.5 1.08104 10.1043 1.66713 9.93538C2.25321 9.76646 2.88213 9.8382 3.41552 10.1348L21.1138 19.9806C21.5606 20.2282 21.9126 20.618 22.1144 21.0886C22.3162 21.5592 22.3562 22.0838 22.2282 22.5798C22.1002 23.0757 21.8114 23.5148 21.4074 23.8278C21.0034 24.1408 20.5071 24.3099 19.9968 24.3085Z" fill="url(#paint3_linear)"/>
<path d="M19.9968 44C19.3872 44 18.8026 43.7569 18.3715 43.3241C17.9405 42.8913 17.6983 42.3044 17.6983 41.6924V22.0009C17.6983 21.3889 17.9405 20.8019 18.3715 20.3691C18.8026 19.9364 19.3872 19.6933 19.9968 19.6933C20.6064 19.6933 21.191 19.9364 21.622 20.3691C22.0531 20.8019 22.2953 21.3889 22.2953 22.0009V41.6924C22.2953 42.3044 22.0531 42.8913 21.622 43.3241C21.191 43.7569 20.6064 44 19.9968 44Z" fill="url(#paint4_linear)"/>
<path d="M19.9987 44C19.489 44.0005 18.9936 43.831 18.5903 43.518C18.1871 43.2049 17.8989 42.7662 17.7711 42.2709C17.6433 41.7755 17.6832 41.2515 17.8844 40.7813C18.0857 40.3112 18.4369 39.9215 18.8828 39.6736L36.5811 29.8279C36.8452 29.681 37.1356 29.5878 37.4356 29.5536C37.7355 29.5193 38.0393 29.5448 38.3295 29.6284C38.6197 29.7121 38.8907 29.8523 39.1269 30.041C39.3631 30.2298 39.56 30.4634 39.7063 30.7286C39.8526 30.9937 39.9454 31.2852 39.9795 31.5864C40.0136 31.8876 39.9883 32.1926 39.9049 32.4839C39.8216 32.7753 39.682 33.0473 39.494 33.2845C39.3059 33.5216 39.0732 33.7193 38.8091 33.8662L21.1108 43.7119C20.7705 43.9014 20.3878 44.0005 19.9987 44Z" fill="url(#paint5_linear)"/>
<path d="M19.9968 44C19.6079 43.9999 19.2256 43.9002 18.8858 43.7104L1.18752 33.8646C0.654126 33.568 0.259944 33.0708 0.0916909 32.4824C0.00838054 32.191 -0.0169551 31.8861 0.0171305 31.5849C0.051216 31.2837 0.144055 30.9922 0.290348 30.7271C0.43664 30.4619 0.63352 30.2283 0.869747 30.0395C1.10597 29.8507 1.37692 29.7105 1.66712 29.6269C2.2532 29.458 2.88212 29.5297 3.41552 29.8263L21.1138 39.6721C21.5606 39.9197 21.9126 40.3095 22.1144 40.7801C22.3161 41.2507 22.3562 41.7753 22.2282 42.2713C22.1002 42.7672 21.8114 43.2063 21.4074 43.5193C21.0034 43.8323 20.5071 44.0014 19.9968 44Z" fill="url(#paint6_linear)"/>
<path d="M2.29848 34.1542C1.68889 34.1542 1.10426 33.9111 0.67321 33.4783C0.242161 33.0456 0 32.4586 0 31.8466L0 22.0009C0 21.3888 0.242161 20.8019 0.67321 20.3691C1.10426 19.9364 1.68889 19.6933 2.29848 19.6933C2.90808 19.6933 3.49271 19.9364 3.92375 20.3691C4.3548 20.8019 4.59696 21.3888 4.59696 22.0009V31.8466C4.59696 32.4586 4.3548 33.0456 3.92375 33.4783C3.49271 33.9111 2.90808 34.1542 2.29848 34.1542Z" fill="url(#paint7_linear)"/>
<defs>
<linearGradient id="paint0_linear" x1="37.6951" y1="22.0009" x2="37.6951" y2="12.1551" gradientUnits="userSpaceOnUse">
<stop stop-color="#C6F523"/>
<stop offset="0.9" stop-color="#AFE63A"/>
</linearGradient>
<linearGradient id="paint1_linear" x1="37.6951" y1="12.1551" x2="19.9639" y2="2.36888" gradientUnits="userSpaceOnUse">
<stop stop-color="#AFE63A"/>
<stop offset="0.9" stop-color="#81C36D"/>
</linearGradient>
<linearGradient id="paint2_linear" x1="19.9968" y1="2.30936" x2="2.26564" y2="12.0956" gradientUnits="userSpaceOnUse">
<stop stop-color="#81C36D"/>
<stop offset="0.8" stop-color="#61AFB4"/>
</linearGradient>
<linearGradient id="paint3_linear" x1="2.29846" y1="12.1551" x2="20.0296" y2="21.9414" gradientUnits="userSpaceOnUse">
<stop stop-color="#61AFB4"/>
<stop offset="0.9" stop-color="#42A0DA"/>
</linearGradient>
<linearGradient id="paint4_linear" x1="19.9968" y1="22.0009" x2="19.9968" y2="41.6924" gradientUnits="userSpaceOnUse">
<stop stop-color="#42A0DA"/>
<stop offset="0.8" stop-color="#3B84BB"/>
</linearGradient>
<linearGradient id="paint5_linear" x1="37.6951" y1="31.8466" x2="19.9639" y2="41.6329" gradientUnits="userSpaceOnUse">
<stop stop-color="#386D9B"/>
<stop offset="0.7" stop-color="#3B84BB"/>
</linearGradient>
<linearGradient id="paint6_linear" x1="19.9968" y1="41.6924" x2="2.2656" y2="31.9062" gradientUnits="userSpaceOnUse">
<stop offset="0.3" stop-color="#3B84BB"/>
<stop offset="0.9" stop-color="#366FA5"/>
</linearGradient>
<linearGradient id="paint7_linear" x1="2.29848" y1="31.8466" x2="2.29848" y2="22.0009" gradientUnits="userSpaceOnUse">
<stop stop-color="#366FA5"/>
<stop offset="1" stop-color="#366998"/>
</linearGradient>
</defs>
</svg>
